<?xml version="1.0" encoding="UTF-8"?>
<!DOCTYPE svg PUBLIC "-//W3C//DTD SVG 1.1//EN" "http://www.w3.org/Graphics/SVG/1.1/DTD/svg11.dtd">
<svg xmlns="http://www.w3.org/2000/svg" xml:space="preserve" width="1.85528in" height="1.93502in" version="1.1" style="shape-rendering:geometricPrecision; text-rendering:geometricPrecision; image-rendering:optimizeQuality; fill-rule:evenodd; clip-rule:evenodd"
viewBox="0 0 1855.28 1935.02">
 <defs>
  <style type="text/css">
    .fil2 {fill:#FFF212}
    .fil1 {fill:#EC268F}
    .fil4 {fill:#00AFEF}
    .fil0 {fill:#0F62AC}
    .fil3 {fill:black}
  </style>
 </defs>
 <g id="Layer_x0020_1">
  <g id="_2696503224592">
   <path class="fil0" d="M455.23 1211.63l944.5 0 21.22 47.76c7.88,16.21 14.22,33.69 20.7,48.28l62.3 144.65c5.81,14.33 13.57,33.02 20.52,48.46 15.41,34.24 26.28,62.99 42.4,95.56 60.14,0 120.28,0.06 180.41,0 29.78,-0.03 48.74,2.83 74.37,-15.84 17.41,-12.69 29.88,-34.38 31.68,-55.87 4.35,-52.05 0.08,-125.87 0.08,-180.33l0 -535.93c0,-54.02 11.25,-106.18 -45.49,-134.92 -31.19,-15.79 -142.59,3.28 -170.03,-7.72 -6.38,-15.91 1.54,-61.91 -2.26,-79.98 -4.96,-23.65 -42.06,-18.8 -60.8,-18.8 -20.71,0 -54.73,-5.41 -58.21,21.38 -2.83,21.8 4.41,58.79 -1.9,77.69 -21.66,7.23 -49.14,-3.74 -70.8,3.49 -4.88,14.63 -1.74,61.99 -1.74,80.5l-1029.39 0c0,-18.51 3.14,-65.87 -1.74,-80.5 -21.66,-7.23 -49.13,3.74 -70.8,-3.49 -6.85,-20.51 2.19,-57.45 -2.24,-80 -4.95,-25.2 -41.01,-19.06 -60.52,-19.07 -19.41,-0.01 -55.18,-4.53 -58.49,21.1 -2.34,18.12 3.83,63.35 -1.91,77.68 -28.56,11.45 -138.99,-8.89 -171.77,8.64 -54.64,29.21 -43.75,81.02 -43.75,134 0,119.39 0,238.78 0,358.17 0,65.7 -3.56,314.68 0.08,358.09 1.86,22.28 14.89,44.26 33.23,56.97 25.06,17.37 46.65,14.71 75.46,14.74 59.26,0.06 118.51,0 177.76,0l167.14 -384.69z"/>
   <path class="fil0" d="M484.42 4.48c-6.83,36.8 -2.65,427.49 -2.65,498.78 0,25.48 -4.75,150.17 3.53,163.61 7.77,7.77 399.93,3.53 442.19,3.53 42.05,0 434.94,4.15 442.4,-3.32 7.21,-7.21 3.32,-349.66 3.32,-386.68 0,-58.63 -2.83,-188.75 0.06,-241.49 2.78,-50.96 0.25,-37.07 -111.49,-37.08l-583.68 0c-49.94,0 -149.56,-5.54 -193.67,2.65z"/>
   <path class="fil1" d="M903.6 1930.61c6.37,-21.97 3.22,-563.52 3.02,-634.45 -0.07,-25.41 -13.62,-18.34 -34.94,-18.13 -25,0.25 -150.82,-2.67 -156.81,2.22 -4.82,3.94 -92.05,425.09 -105.09,489.2 -5.04,24.77 -37.06,146.97 -30.33,161.2 11.63,5.78 303.78,5.86 324.14,-0.05z"/>
   <path class="fil2" d="M954.01 1280.61c0,67.8 -3.4,632.08 1.76,648.22l319.26 -0.87 -84.49 -401.02c-5.33,-34.07 -15.03,-67.17 -21.3,-100.74l-25.78 -125.44c-3.99,-19.19 -2.63,-17.78 -9.29,-19.9l-180.17 -0.24z"/>
   <path class="fil3" d="M1318.5 1905.72c6.42,35.27 4.81,27.69 41.54,27.44 36.75,-0.25 257.48,5.09 273.31,-2.58 4.49,-11.58 -30.52,-79.72 -37.28,-95.49 -13.8,-32.16 -27.17,-64.48 -41.5,-96.46 -63.38,-141.41 -124.48,-290.45 -187.01,-433.8 -12.98,-29.77 -5.74,-27.58 -42.13,-26.85 -18.87,0.38 -127.52,-5.43 -134.93,3.17 -7.06,8.19 16.45,96.11 19.57,112.2 21.81,112.52 50.34,228.64 72.29,341.59l36.15 170.79z"/>
   <path class="fil4" d="M221.81 1930.78c14.8,6.96 238.92,1.72 275.83,2.45 36.48,0.72 31.61,3.13 38.78,-30.2 23.71,-110.29 134.05,-610.53 127.26,-623.72 -17.54,-4.98 -110.39,-0.63 -136.88,-1.43 -33.93,-1.02 -27.18,0.89 -39.96,29.03l-103.93 240.97c-28.35,63.75 -54.64,128.98 -83.04,192.88 -14.13,31.8 -27.6,64.68 -41.18,96.78 -6.13,14.48 -40.3,83.93 -36.89,93.23z"/>
  </g>
 </g>
</svg>
