<?xml version="1.0" encoding="UTF-8"?>
<!DOCTYPE svg PUBLIC "-//W3C//DTD SVG 1.1//EN" "http://www.w3.org/Graphics/SVG/1.1/DTD/svg11.dtd">
<svg xmlns="http://www.w3.org/2000/svg" xml:space="preserve" width="2.0066in" height="1.2869in" version="1.1" style="shape-rendering:geometricPrecision; text-rendering:geometricPrecision; image-rendering:optimizeQuality; fill-rule:evenodd; clip-rule:evenodd"
viewBox="0 0 2006.61 1286.9">
 <defs>
  <style type="text/css">
    .fil0 {fill:#0F62AC}
  </style>
 </defs>
 <g id="Layer_x0020_1">
  <path class="fil0" d="M266.64 113.11c19.91,89.97 165.63,229.34 224.54,269.9 102.86,70.81 265.63,107.34 380.52,23.59 -26.65,-72.8 -134.43,-164.84 -212.07,-201.91 120.29,-14.39 210.69,98.15 248.07,174.42 51.61,105.32 68.45,241.13 69.64,374.38 66.61,26.19 56.68,-27.75 58.33,-83.9 0.96,-32.77 4.73,-64.7 9.45,-96.52 9.34,-62.95 25.28,-126.74 48.93,-177.53 44,-94.5 122.53,-191.61 254.69,-193.23 -73.31,53.93 -182.72,120.18 -210.98,204.29 94.78,85.81 281.22,42.31 372.05,-17.61 77.54,-51.15 193.06,-170.43 233.37,-263.75 -42.54,-48.12 -150.69,-84.04 -226.02,-102.52 -91.58,-22.46 -199.5,-29.84 -291.28,-1.5 -236.48,73.01 -137.13,197.53 -183.13,313.66 -15.99,40.35 -21.82,91.9 -38.98,127.41 -11.05,-39.69 -19.88,-83.59 -35.93,-125.01 -49.65,-128.17 51.42,-235.3 -166.92,-310.79 -231.57,-80.06 -401.38,42.76 -534.28,86.62zm450.37 1169.95l270.85 3.84 1.23 -289.44c-0.13,-258.24 -225.3,-221.82 -304.43,-236.16 -76.76,-13.93 -142.13,-50.23 -184.11,-87.64 -41.52,-37 -98.82,-118.37 -175.82,-91.98 -32.57,27.02 45,118.49 59.59,155.63 -208.88,-25.58 -240.92,-190.09 -299.4,-239.21 -29.43,-24.72 -71.64,-25.05 -82.49,15.16 -21.07,78.11 100.83,223.98 141.29,264.16 232.65,231.04 475.4,111.26 555.22,251.41 32.4,56.89 14.54,182.81 18.07,254.22zm909.09 -545.64c17.18,-41.27 87.93,-109.39 59.96,-151.9 -72.15,-71.54 -161.75,135.76 -350.25,174.07 -87.84,17.84 -314.91,-24.94 -314.91,237.87l1.56 289.01 269.32 0.04c12.28,-126.06 -28.08,-247.53 65.74,-308.9 69.54,-45.48 357.98,-25.17 531.84,-218.38 37.08,-41.2 132.97,-169.26 115.04,-259.04 -133.51,-88.08 -87.82,189.43 -378.29,237.23z"/>
 </g>
</svg>
