<?xml version="1.0" encoding="UTF-8"?>
<!DOCTYPE svg PUBLIC "-//W3C//DTD SVG 1.1//EN" "http://www.w3.org/Graphics/SVG/1.1/DTD/svg11.dtd">
<svg xmlns="http://www.w3.org/2000/svg" xml:space="preserve" width="2.06395in" height="2.0638in" version="1.1" style="shape-rendering:geometricPrecision; text-rendering:geometricPrecision; image-rendering:optimizeQuality; fill-rule:evenodd; clip-rule:evenodd"
viewBox="0 0 2063.95 2063.8">
 <defs>
  <style type="text/css">
    .fil0 {fill:#0F62AC}
  </style>
 </defs>
 <g id="Layer_x0020_1">
  <path class="fil0" d="M718.27 373.03c-30.9,-35.25 -3,-67.17 24.08,-92.17 31,-28.61 76.08,-49.65 114.14,-65.9 22.41,-9.57 46.14,-9.21 63.69,-46.33 5.58,-11.81 2.47,-54.44 2.5,-70.02 0.07,-32.04 -3.36,-34.71 -9.71,-62.81 -5.04,-22.31 -23.06,-27.17 -43.48,-22.96 -17.33,3.57 -45.62,6.83 -60.87,11.71 -16.9,5.41 -7.42,4.63 -28.12,6.88 -13.76,1.5 -15.62,7.56 -27.86,9.65 -39.04,6.68 -73.02,19.24 -108.73,36.3 -8.78,4.2 -14.69,4.85 -25.07,9.93 -18.47,9.03 -52.76,21.12 -73.48,36.54 -10.98,8.18 -31.26,14.92 -46.86,25.65 -29.26,20.14 1.12,34.32 32.7,88.03 32.42,55.15 46.41,173.54 -1.12,226.11 -31.81,35.18 -44.91,39.74 -85.86,59.17 -147.87,70.2 -101.28,75.37 -168.15,121.92 -52.74,36.71 -102.88,60.79 -151.71,12.13 -17.84,-17.78 -14.91,-31.09 -41.86,-30.66l-38.19 101.84c-3.34,9.19 -3.14,20.24 -6.12,28.89 -3.87,11.24 -7.13,13.61 -8.03,26.98 -1.99,29.6 -18.7,45.46 -6.17,58.33 9.41,4.66 67.85,6.7 84.09,8.44 66.33,7.1 161.13,29.39 169.06,111.02 3.35,34.45 -11.17,118.71 11.15,171.39 21.81,51.5 92.89,85.96 135.04,145.02 18.47,25.88 23.32,35.74 27.6,67.38 7.61,56.15 -20.1,99.31 -31.85,152.42 -17.5,79.1 10.9,117.26 -11.72,165.82 -35.33,75.85 -97.09,48.65 -129.81,57.73 3.1,30.9 15.18,27.49 34.65,47.87 15.74,16.48 26.87,26.3 44.07,40.94 121.84,103.7 98,76.63 108.58,0.83 3.09,-22.15 12.11,-41.21 26.93,-57.95 21.32,-24.09 18.8,-35.45 18.32,-66.7 -1.21,-77.68 -5.57,-373.13 7.57,-407.52 15.58,-40.76 46.17,-68.34 88.78,-78.76 31.31,-7.66 147.33,2.99 161.42,-8.71 4.7,-17.19 -22.65,-25.82 -33.93,-38.93 -20.18,-23.46 -44.66,-78.59 -44.08,-110.95 0.38,-21.82 -2.01,-57.58 0.86,-77.23 10.15,-69.54 64.45,-148.26 124.9,-187.67 14.24,-9.28 35.95,-19.02 51.82,-25.7 29.06,-12.22 35.05,-8.61 62.26,-15.26 50.28,-12.3 73.24,-2.52 106.39,2.14 12.5,1.76 23.77,0.59 36.36,3.65 38.85,9.43 82.32,27.5 121.41,33.63 20.88,3.28 129.86,6.15 149.06,4 32.74,-3.68 37.66,-9.96 37.43,-40.37 -0.2,-25.77 0.88,-40.22 -18.07,-59.53 -30.11,-30.69 -76.96,-35.06 -119.39,-35.64 -51.63,-0.71 -101.67,2.62 -152.65,2.61 -44.26,-0.01 -89.91,-0.57 -113.49,-44.04 -9.5,-17.5 0.97,-43.38 9.86,-59.59 12.51,-22.79 14.66,-27.36 36.39,-41.13 10.12,-6.41 15.86,-6.33 24.31,-13.19 13.81,-11.22 8.65,-10.5 16.24,-23.78 16.31,-28.51 -2.87,-77.87 47.59,-109.93 10.35,-6.58 43.14,-19.51 55.51,-22.01 20.24,-4.09 45.99,-7.17 67.09,-10.46 23.94,-3.74 47.67,10.22 67.35,-7.63 12.45,-18.79 -8.17,-92.84 -8.42,-103.24l0.32 -79.9c0.78,-5.58 8.47,-21.91 10.95,-29.06 7.05,-20.31 24.67,-34.19 26.34,-53.68 -7.22,-4.86 -39.08,-16.25 -47.91,-17.1 -18.69,-1.8 -32.48,-8.19 -53.19,-11.82 -38.13,-6.68 -77.83,-16.57 -116.42,-16.11 -39.23,0.48 -87.96,-6.46 -127.34,-2.15 -28.17,3.08 -21.68,18.66 -18.19,42.65 5.94,40.76 13.57,78.55 5.2,121.78 -4.04,20.85 -7.31,29.67 -17.65,47.37 -12.66,21.68 -57.59,43.2 -81.25,51.28 -26.54,9.07 -64.87,28.17 -86.68,45.85 -14.5,11.76 -25.59,15.94 -29.76,35.26 -5.74,26.67 -11.14,30.67 -38.82,27.41zm924.57 1103.4c-30.43,13.32 -33.3,18.72 -40.74,49.46 -3.39,14.02 0.33,14.06 0.81,27.96 0.9,25.98 -5.92,98.53 8.23,116.81 25.59,33.07 59.85,23.32 99.22,23.32 24.52,0 106.09,3.24 124.16,-0.87 30.33,-6.91 48.46,-46.67 34.8,-75.56l-48.16 -76.87c-20.64,-27.7 -26.44,-49.15 -58.3,-64.23 -10.72,-5.07 -109.37,-4.68 -120.01,-0.01zm-1220.28 -1275.3c-42.12,17.39 -174.33,153.74 -208.74,203.85 -13.6,19.8 -28.98,38.2 -43.07,59.46 -9.35,14.12 -58.02,82.26 -50.6,98.61 4.2,9.27 14.23,24.17 20.07,32.96 17.28,26 31.19,44.97 66.01,31.43 62.41,-24.28 97.11,-97.91 176.14,-131.41 21.11,-8.95 52.68,-21.09 70.84,-34.18 19.89,-14.34 41.87,-27.31 50.54,-51.98 17.86,-50.8 4.38,-60.71 1.53,-88.91 -2.17,-21.48 -15.45,-56.51 -27.11,-75.41 -6.7,-10.87 -16.18,-18.36 -23.68,-28.84 -9.91,-13.87 -12.85,-23.44 -31.94,-15.56zm-402.6 697.66c-18.48,6.66 -17.04,38 -17.4,55.11 -0.52,24.77 -2.54,47.26 -2.56,72.49 -0.02,41.77 0.14,99.66 7.08,140.33 2.84,16.62 13.48,77.51 18.81,91.22 1.87,4.8 8.41,48.17 23.16,89.36 6.68,18.65 11.94,36.7 19.6,55.42 27,65.96 59.94,138.06 101.2,196.38 27.96,39.52 28.81,60.8 83.21,64.32 72.23,4.67 90.5,18.04 109.37,-29.58 8.45,-21.33 6.52,-41.29 0.8,-63.03 -13.13,-49.87 23.25,-129.97 34.88,-181.19 17.81,-78.48 -45.03,-111.14 -112.49,-176.36 -51.17,-49.46 -57.4,-95.4 -60.49,-161.96 -3.12,-67.36 35.12,-105.9 -70.83,-141.83 -25.93,-8.79 -110.35,-19.34 -134.34,-10.69zm1666.17 -105.47c-23.17,9.17 -21.98,40.37 -11.96,59.11 23.15,43.28 35.69,80.92 -22.86,109.85 -11.26,5.56 -26.23,4.57 -38.78,4.24 -18.25,-0.5 -19.07,-6.58 -35.24,-9.69 -20.78,-3.99 -46.7,-22.04 -63.25,0.65 -14.66,20.1 -1.04,45.14 9.96,62.64 18.63,29.61 75.25,39.62 107.92,64.62 48.85,37.38 38.5,65.66 7.63,110.82 -11.38,16.64 -24.13,31.19 -35.96,49.05 -6.48,9.76 -47.48,45.42 -13.46,49.49l170.24 -0.23c51.18,-0 96.52,-5.01 134.83,37.7 17.73,19.76 57.16,91.46 70.57,99.73 16.86,10.39 14.41,0.56 20.16,-11.88 3.62,-7.83 3.83,-3.94 7.3,-12.72 2.57,-6.51 2.43,-9.83 5.51,-17 4.43,-10.31 8.98,-19.94 11.7,-30.8 3.65,-14.57 8.88,-20.28 11.13,-33.87 3.37,-20.32 3.78,-16.01 9.31,-33.2 5.09,-15.83 -0.91,-16.2 7.29,-35.22 17.31,-40.17 24.76,-188.63 24.77,-232.8 0,-53.74 -3.74,-105.61 -12.81,-157.24 -14.31,-81.56 -13.13,-72.57 -91.62,-49.71 -36.51,10.63 -110.25,29.4 -146.52,20.31 -68.91,-17.27 -83.93,-60.44 -125.86,-43.86zm-50.79 1098.2l-80.02 0c-6.37,-26.82 -2.5,-301.24 -2.5,-352.58 0,-32.93 -4.32,-88.78 2.5,-117.53l225.1 -0.05c20.08,-0.29 19.65,-2.57 31.46,13.56 23.6,32.23 51.2,82.14 71.72,110.82 14.3,19.98 101.06,152.44 103.82,168.74 3.13,18.43 0.5,67.82 0.5,89.52 0,16.93 5.54,73.55 -6.72,83.3 -8.69,6.92 -74.15,7.07 -82.07,0.48 -8.49,-7.07 -10.94,-20.55 -15.94,-29.06 -12.25,-20.85 -26.41,-34.27 -47.29,-45.23 -6.44,-3.38 -6.81,-6 -14.19,-8.31 -10.39,-3.24 -5.86,0.82 -17.44,-5.06 -23.11,-11.73 -53.64,-7.51 -76.09,1.69 -9.24,3.79 -8.44,0.26 -17.73,4.78 -5.5,2.68 -6.42,4.67 -14.06,8.45 -9.66,4.78 -18.39,12.75 -25.04,19.97 -9.87,10.73 -11.54,15.45 -18.29,26.72 -3.66,6.12 -4.69,7.48 -8.22,14.28 -3.08,5.93 -5.93,8.29 -9.5,15.5zm-1042.74 0c-2.27,-14.06 -5.29,-37.7 -0.81,-50.82 24.06,-8.21 176.91,4.77 195.06,-4.98 18.65,-10.03 49.92,-95.1 175.94,-91.83 7.78,0.2 50.19,8.4 56.22,11.3 31.22,14.97 53.4,29.74 76.84,55.69 30.17,33.39 -0.57,28.13 106.9,28.13 35.35,0 253.09,-3.52 268.37,1.69 4.48,13.12 1.46,36.76 -0.81,50.82l-332.58 0c-88.01,0 -43.1,-4.32 -84.73,-50.3 -13.75,-15.19 -20.59,-19.31 -37.02,-30.5l-48.33 -16.69c-44.3,-3.36 -42.04,4.44 -58.32,9.12 -24.04,6.91 -24.73,6.66 -44.24,23.27 -91.83,78.15 60.78,65.09 -272.48,65.09zm323.22 -418.24c-10.82,-13.69 -5.49,-91.12 -5.66,-114.4 -0.25,-34.32 -3.08,-30.24 30.01,-30l117.56 -0.01c31.47,-0.21 32.93,-3.67 32.54,27.48 -0.4,31.98 4.19,87.12 -2.54,115.07 -20.57,4.96 -147.04,4.78 -171.9,1.86zm441.96 -141.89c6.56,13.96 2.5,291.83 2.5,332.58 0,115.13 16.09,100.02 -67.52,100.02 -28.34,0 -56.68,0 -85.02,0 -30.24,0 -45.67,6.35 -67.3,-17.72 -31.99,-35.62 -88.45,-66.04 -134.08,-75.98 -13.43,-2.93 -25.85,-0.35 -40.2,-2.48 -41.09,-6.11 -100.45,8.79 -136.96,27.72 -57.36,29.75 -68.71,68.52 -101.37,68.67 -18.3,0.08 -69.85,1.94 -84.37,-1.06 -10.56,-15.21 -5.85,-183.01 -5.85,-214.19 0,-38.15 -4.69,-195.09 2.5,-220.05 48.86,-0.08 117.35,-6.17 165.86,-0.59 11.37,1.31 11.41,-1.74 20.23,-0.94 8.08,10.27 3.95,96.37 3.95,114.06 0.01,40.55 -1.94,66.54 30.5,94.53 25.08,21.64 74.71,15.49 107.04,15.49 41.63,0 83.56,0.49 125.14,0.11 33.42,-0.3 59.71,-21.32 70.59,-51.94 15.86,-44.65 -9.13,-165.98 13.07,-171.67 0.55,-0.14 172.97,0 181.28,3.44zm-537.62 637.65c8.37,12.63 11.78,21.84 20.15,34.86 30.21,47.01 96.32,73.65 154.62,52.39 19.8,-7.22 40.09,-20.13 54.41,-35.61 0.35,-0.37 0.86,-0.91 1.21,-1.29 12.5,-13.33 28.07,-45.99 30.22,-47.3 12.7,-7.68 460.82,-1.24 520.34,-4.07 38,-1.81 33.91,-1.58 51.69,28.62 34.52,58.64 115.92,88.29 180.07,49.89 82.46,-49.35 28.94,-80.36 99.92,-77.62 47.11,1.82 100.46,-3.07 122.91,-52.13 12.46,-27.22 7.09,-134.25 7.19,-170.25 0.22,-79.86 -4.7,-68.8 -42.58,-132.46l-69.66 -107.88c-23.51,-33.47 -46.69,-71.33 -69.01,-106.04 -41.36,-64.31 -49.96,-53.68 -123.75,-53.79 -58.33,-0.08 -116.7,-0.09 -175.02,0.05 -25.07,0.06 -56.06,-4.44 -77.36,10.16 -17.45,11.96 -31.2,36.26 -32.76,57.26 -6.31,85 8.1,286.02 -2.44,350.14 -40.75,2.65 -29.64,-14.13 -29.87,-47.65l-0.14 -234.91c0,-49.94 2.29,-105.48 -0.3,-154.74 -2.52,-48.11 -31.63,-76.84 -79.71,-77.83 -103.25,-2.13 -209.04,0.01 -312.59,0.01 -105.02,0 -210.05,0 -315.07,0 -35.31,0 -114.49,-6.7 -141.48,13.63 -42.17,31.75 -31.06,79.74 -31.06,126.41 -0.01,104.2 -0.01,208.4 0.03,312.6 0.01,17.17 5.38,58.79 -8.63,68.89 -20.25,14.59 -26.44,14.67 -36.06,41.46 -11.36,31.63 -10.46,104.91 15.43,131.41 33.97,34.77 86.42,25.79 131.76,25.77 52.51,-0.01 105.02,0 157.54,0zm210.05 -1382.82c76.29,34.16 327.5,-54.62 394.6,98.01 10.3,23.43 9.37,49.43 8.13,74.66 -2.01,40.94 -49.63,73.35 -95.03,72.52 -72,-1.31 -81.09,4.83 -156.19,-9.13 -13.14,-2.44 -22.73,-1.94 -36.05,-6.46 -94.38,-31.99 -216.69,-56.26 -303.6,4.86 -80.51,56.61 -110.93,131.25 -100.15,228.83 4.77,43.2 32.58,77.68 70.04,97.51 118.28,62.61 118.39,28.89 207.3,37.74 30.03,3 33.3,12.39 70.95,11.58 55.3,-1.18 112.06,0 167.53,0 85.11,0 147.15,-14.09 203.98,46.08 12.52,13.26 27.64,75.78 51.01,36.36l63.22 -84.32c8.98,-8.72 19.12,-23.04 26.43,-33.58 17.36,-25.05 6.91,-38.06 -19.84,-46.78 -22.29,-7.26 -75.56,-34.58 -93.62,-53.92 -40.78,-43.66 -47.05,-133.93 15.37,-157.42 40.61,-15.28 58.63,-0.27 95.37,9.18 72.27,18.58 22.06,-51.15 20.37,-55.29 -12.09,-29.83 -3.95,-66.82 18.7,-89.5 66.87,-66.93 124.06,-5.13 164.69,13.56 41.67,19.17 60.28,2.78 98.85,-2.59 29.28,-4.08 64.35,-16.5 93.96,-23.31 35.87,-8.24 24.13,-24.77 5.56,-74.96 -82.41,-222.74 -224.08,-391.47 -421.59,-521.14 -50.86,-33.39 -103.28,-54.8 -157.18,-80.9 -18.07,-8.75 -23.49,-7.46 -39.03,4.53 -45.86,35.38 -45.43,58.37 -38.3,133.3 3.64,38.24 34.31,158.44 -59.99,158.46 -38.01,0.01 -71.97,-1.13 -109.53,8 -45.48,11.06 -49.11,19.5 -55.09,62.43 -3.75,26.88 -14.58,63.76 -37.49,80.04 -28.27,20.07 -57.91,23.99 -53.4,61.62z"/>
 </g>
</svg>
