<?xml version="1.0" encoding="UTF-8"?>
<!DOCTYPE svg PUBLIC "-//W3C//DTD SVG 1.1//EN" "http://www.w3.org/Graphics/SVG/1.1/DTD/svg11.dtd">
<svg xmlns="http://www.w3.org/2000/svg" xml:space="preserve" width="1.69128in" height="2.09493in" version="1.1" style="shape-rendering:geometricPrecision; text-rendering:geometricPrecision; image-rendering:optimizeQuality; fill-rule:evenodd; clip-rule:evenodd"
viewBox="0 0 1691.28 2094.93">
 <defs>
  <style type="text/css">
    .fil0 {fill:#0F62AC}
  </style>
 </defs>
 <g id="Layer_x0020_1">
  <path class="fil0" d="M829.95 1.13c-50.73,10.88 -78.57,48.85 -120.18,70.98 -57.44,30.56 -99.71,-8.05 -160.09,-5.52 -53.05,2.21 -71.5,56.7 -94.33,97.06 -30.84,54.52 -39.9,62.35 -111.57,77.74 -63.42,13.62 -88.48,26.08 -93.81,95.67 -11.87,155.28 -3.96,105.42 -96.01,188.35 -70.51,63.52 24.19,145.55 22.09,214.67 -1.48,48.89 -51.91,94.26 -45.87,143.51 5.05,41.3 64,76.29 87.96,101.62 57.72,61.03 32.65,56.78 41.41,149.46 5.66,59.81 50.2,69.88 104.23,84.27 63.81,16.99 83.72,22.34 110.91,78.43 24.58,50.71 36.62,90.52 104.16,86.94 58.3,-3.08 111.35,-33.19 163.28,-0.29 30.7,19.44 75.78,74.13 126.26,61.99 39.97,-9.61 82.13,-53.56 117.91,-71.8 57.2,-29.15 99.39,8.63 156.39,6.91 52.76,-1.58 70.36,-53.49 93.65,-94.67 30.53,-53.99 39.54,-64.68 109.64,-79.6 62.48,-13.3 90.28,-22.59 96.64,-92.43 6.83,-75.02 -6.58,-106.85 41.34,-148.81 29.76,-26.06 87.54,-52.13 80.52,-110.21 -5.94,-49.08 -46.82,-94.87 -47.67,-144.19 -0.88,-50.9 50.24,-93.56 46.14,-143.82 -3.51,-43.07 -61.35,-77.41 -86.31,-103.2 -56.3,-58.14 -36.37,-54.22 -42.89,-146.93 -8.63,-122.63 -154.16,-44.12 -214.32,-164.42 -24.12,-48.24 -34.3,-91.85 -101.19,-89.81 -58.58,1.78 -111.47,33.33 -164.87,1.59 -30.11,-17.89 -78.22,-73.2 -123.41,-63.5zm-49.64 144.02c-298.62,36 -553.46,301.47 -512.69,646.79 35.07,297.11 304.3,550.94 647.63,510.58 295.9,-34.78 550.7,-305.03 510.1,-646.46 -35.28,-296.68 -304.82,-551.92 -645.04,-510.91zm6.41 72.97c-286.94,37.48 -480.1,291.74 -446.1,566.08 32.22,259.99 266.29,481.8 566.39,445.39 260.17,-31.57 481.32,-267.02 445.22,-566.56 -31.02,-257.36 -268.26,-483.73 -565.52,-444.91zm-786.72 1625.95l319.1 -17.74c21.53,44.41 41.53,92.52 59.2,135.63 9.89,24.14 48.65,118.61 60.37,132.81l351.13 -604.39c-18.09,-18.02 -76.11,-65.49 -108.8,-69.05 -53.79,-5.85 -106.19,21.75 -159.85,15.06 -91.05,-11.35 -60.26,-162.4 -189.16,-169.13l-332.01 576.8zm908.32 -350.21c1.28,7.61 332.24,587.35 345.93,601.07l119.56 -267.76 317.48 18.2 -336.66 -587.24c-97.69,21.19 -85.76,174.69 -182.65,175.35 -53.14,0.36 -101.98,-33.43 -154.42,-11.51 -18.4,7.69 -84.78,55.39 -109.24,71.89zm-152.48 -687.94c-25.25,-26.41 -139.4,-145.85 -160.64,-157.79 -17.39,8.72 -29.5,25.76 -43.76,39.95 -13.86,13.79 -31.93,26.45 -39.13,43.75l244.22 245.86 424.94 -422.14c-5.42,-11.85 -57.74,-63.43 -73.56,-77.01 -0.71,-0.61 -1.65,-1.43 -2.36,-2.01 -5.38,-4.42 -1.61,-1.87 -7.83,-5.82 -18.69,10.55 -144.67,141.53 -171.42,167.95 -24.42,24.13 -153.97,159.27 -170.46,167.26z"/>
 </g>
</svg>
