<?xml version="1.0" encoding="UTF-8"?>
<!DOCTYPE svg PUBLIC "-//W3C//DTD SVG 1.1//EN" "http://www.w3.org/Graphics/SVG/1.1/DTD/svg11.dtd">
<!-- Creator: CorelDRAW -->
<svg xmlns="http://www.w3.org/2000/svg" xml:space="preserve" width="1.5in" height="0.8in" version="1.1" style="shape-rendering:geometricPrecision; text-rendering:geometricPrecision; image-rendering:optimizeQuality; fill-rule:evenodd; clip-rule:evenodd"
viewBox="0 0 1500 800"
 xmlns:xlink="http://www.w3.org/1999/xlink"
 xmlns:xodm="http://www.corel.com/coreldraw/odm/2003">
 <defs>
  <style type="text/css">
   <![CDATA[
    .fil0 {fill:#0f2d6b}
    .fil1 {fill:#0f2d6b;fill-rule:nonzero}
   ]]>
  </style>
 </defs>
 <g id="Layer_x0020_1">
  <metadata id="CorelCorpID_0Corel-Layer"/>
  <g id="_2697892207376">
   <path class="fil0" d="M610.37 62.97l-0.77 0 -0.44 0.02c-4.17,0.1 -8.34,0.46 -12.49,0.46 -26.26,0.04 -52.51,0.04 -78.76,-0.04 -5.55,-0.02 -9.54,0.9 -9.38,8 0.34,13.2 0.06,26.43 0.06,39.64 -0.02,44.17 -0.02,88.34 -0.04,132.49 0,79.74 0.02,159.48 -0.02,239.22 -0.02,30.13 10.75,53.91 40.34,65.26 10.35,3.99 21.77,6.66 32.82,7.18 27.67,1.31 55.4,1.2 83.11,1.34 12.25,0.06 24.58,0.1 36.73,-1.22 16.06,-1.75 31.56,-5.76 41.41,-20.45 2.42,-3.61 4.33,-7.58 7.01,-12.29 2.23,4.03 3.83,7.28 5.8,10.31 11.07,17 28.63,22.8 47.02,23.18 38.44,0.84 76.99,0.06 115.47,-1.03 16.72,-0.48 33.08,-4.57 47.4,-14.07 19.37,-12.81 25.56,-32.36 25.59,-54.13 0.22,-137.87 0.12,-275.76 0.1,-413.64 0,-8.59 -1.12,-9.65 -9.9,-9.67 -29.96,-0.06 -59.89,-0.04 -89.81,-0.02 -10.92,0.02 -12.09,1.27 -12.09,12.41 0.02,89.29 -0.08,178.61 0.08,267.91 0.08,40.2 0.74,80.4 1.08,120.57 0.06,10.22 -1.2,11.41 -11.45,11.44 -16.68,0.06 -33.36,0 -50.06,0 -14.94,0.02 -14.96,0.02 -14.96,-14.74 0.02,-128.8 0.04,-257.62 0.06,-386.43 0.02,-10.47 -0.72,-11.17 -11.29,-11.17 -28.7,0.02 -57.39,0 -86.1,0 -9.18,0 -10.12,0.94 -10.12,10.09 0,125.12 0,250.25 0.02,375.38 0,6.62 -0.06,13.24 0.02,19.87 0.04,4.45 -1.74,6.98 -6.46,6.97 -21.58,0 -43.19,0 -64.76,0.02 -4.53,0 -6.84,-2.04 -6.84,-6.66 0,-5.15 -0.12,-10.29 -0.12,-15.44 0.02,-127.1 0.06,-254.18 0.08,-381.28 0,-7.24 -1.74,-9.39 -8.34,-9.46z"/>
   <path class="fil0" d="M1133.62 65.63c-27.06,1.16 -49.81,14.2 -59.77,41.53 -3.59,9.84 -4.3,21.13 -4.35,31.77 -0.38,66.96 -0.18,133.94 -0.2,200.89 0,68.93 0,137.88 -0.12,206.8 -0.02,6.26 0.92,10.21 8.68,10.16 30.9,-0.3 61.82,-0.2 92.73,-0.06 6.22,0.04 8.33,-2.16 8.28,-8.76 -0.34,-54.2 -0.22,-108.43 -0.4,-162.63 -0.02,-5.39 2.3,-7.98 7.06,-9.64 8.54,-2.97 16.98,-6.32 25.48,-9.49 14.41,-5.41 28.83,-10.8 44.79,-16.76 0.26,4.53 0.6,7.62 0.6,10.71 0.04,61.83 0.02,123.63 0.04,185.45 0,9.88 1.19,11.06 10.99,11.06 29.19,0.04 58.39,0.02 87.58,0.02 11.74,0 11.87,-0.12 11.87,-11.93 -0.05,-58.89 -0.06,-117.77 -0.09,-176.64 -0.02,-79.72 0.18,-159.46 -0.21,-239.18 -0.1,-20.37 -8.3,-36.93 -25.84,-49.23 -15.68,-11.02 -33.2,-15.5 -51.21,-15.67 -18.27,-0.18 -36.57,-0.3 -54.84,-0.3 -33.71,0 -67.41,0.44 -101.06,1.9zm113.35 77.43c6.78,-0.14 9.64,1.71 9.57,9.04 -0.28,33.14 -0.2,66.23 -0.02,99.37 0.04,6 -1.91,9.57 -7.68,11.65 -20.05,7.26 -39.94,14.98 -60.01,22.19 -8.9,3.23 -10.24,2.01 -10.26,-7.48 -0.04,-20.61 0,-41.22 0,-61.83 0.02,-20.61 -0.06,-41.21 0.02,-61.82 0.06,-10.09 1.04,-10.93 10.96,-10.97 6.08,0 12.19,0.02 18.29,0.04 4.19,0 8.36,0 12.53,0 8.85,0 17.74,-0.02 26.59,-0.18z"/>
   <path class="fil0" d="M430.46 546.14l0 -472.96c-0.03,-9.43 -0.73,-9.75 -10.81,-9.75 -28.73,0.02 -57.42,0.06 -86.13,0.02 -11.55,-0.02 -11.95,0.38 -11.93,11.95 0.02,51.47 -0.1,102.96 0.18,154.45 0.02,6.96 -2.16,10.35 -8.92,12.77 -21.43,7.62 -42.61,16.02 -63.86,24.16 -4.27,1.63 -6.69,0.48 -6.92,-4.23 -0.16,-2.43 -0.12,-4.91 -0.12,-7.36 0,-59.85 0.02,-119.7 0,-179.57 0,-11.83 -0.5,-12.19 -12.61,-12.17 -27.94,0.06 -55.92,0.2 -83.89,-0.06 -0.9,0 -1.74,0 -2.54,0 -9.15,0 -9.78,0.92 -9.78,11.11 -0.02,157.27 -0.02,314.52 0,471.74 0,9.63 0.83,10.41 10.54,10.41 28.47,0 56.92,-0.02 85.39,0.02 12.41,0.02 12.87,-0.44 12.87,-12.67 0.02,-58.63 0.12,-117.25 -0.06,-175.88 -0.02,-6.35 1.99,-9.64 8.14,-11.89 21.17,-7.7 42.14,-16.02 63.16,-24.1 7.04,-2.69 8.34,-1.96 8.42,5.48 0.12,12.97 0.04,25.96 0.06,38.93 0.08,56.67 0.14,113.33 0.26,169.99 0.02,9.3 0.86,10.04 10.09,10.06 28.93,0.06 57.87,0.02 86.84,0.02 10.9,0 11.58,-0.31 11.61,-10.48z"/>
   <path class="fil1" d="M297.46 717.96l-19.07 0 0 -95.32 66.73 0c7.94,0 14.68,2.77 20.25,8.33 5.57,5.55 8.36,12.31 8.36,20.25 0,7.94 -2.79,14.7 -8.36,20.25 -5.57,5.56 -12.31,8.36 -20.25,8.36l-23.84 0 0 -19.07 23.84 0c2.67,0 4.94,-0.92 6.78,-2.75 1.84,-1.84 2.75,-4.09 2.75,-6.79 0,-2.67 -0.91,-4.93 -2.75,-6.78 -1.83,-1.81 -4.11,-2.76 -6.78,-2.76l-47.66 0 0 76.27z"/>
   <polygon class="fil1" points="366.86,717.96 414.52,617.87 462.18,717.96 440.74,717.96 414.52,663.13 388.31,717.96 "/>
   <path class="fil1" d="M515.35 698.89l47.66 0 0 19.07 -47.66 0c-13.2,0 -24.46,-4.65 -33.73,-13.95 -9.3,-9.27 -13.93,-20.5 -13.93,-33.73 0,-13.21 4.63,-24.44 13.93,-33.74 9.28,-9.28 20.53,-13.93 33.73,-13.93l47.66 0 0 19.07 -47.66 0c-7.94,0 -14.7,2.78 -20.27,8.34 -5.55,5.56 -8.34,12.31 -8.34,20.25 0,7.96 2.8,14.7 8.34,20.27 5.56,5.57 12.33,8.34 20.27,8.34z"/>
   <polygon class="fil1" points="608.13,683.84 608.13,717.96 589.06,717.96 589.06,622.64 608.13,622.64 608.13,656.75 655.8,622.64 684.4,622.64 617.67,670.3 684.4,717.96 655.8,717.96 "/>
   <polygon class="fil1" points="699.28,717.96 746.94,617.87 794.6,717.96 773.15,717.96 746.94,663.13 720.72,717.96 "/>
   <path class="fil1" d="M917.63 737.02l-10.57 -19.07 -59.3 0c-13.2,0 -24.46,-4.63 -33.73,-13.92 -9.28,-9.28 -13.93,-20.53 -13.93,-33.74 0,-13.2 4.65,-24.43 13.93,-33.73 9.28,-9.28 20.53,-13.93 33.73,-13.93l76.25 0 -9.51 19.07 -66.74 0c-7.94,0 -14.68,2.77 -20.27,8.34 -5.55,5.56 -8.34,12.31 -8.34,20.24 0,7.96 2.79,14.7 8.34,20.28 5.59,5.56 12.33,8.33 20.27,8.33l48.7 0 -10.57 -19.07 -38.13 0 0 -19.07 47.69 0 41.56 76.27 -19.37 0z"/>
   <path class="fil1" d="M1041.37 679.82l-52.43 0 0 -19.07 52.43 0 0 19.07zm0 -57.2l0 19.07 -76.25 0 0 57.2 76.25 0 0 19.05 -95.32 0 0 -95.32 95.32 0z"/>
   <path class="fil1" d="M1180.64 717.96l-114.37 0 0 -19.07 114.37 0c2.7,0 4.95,-0.9 6.79,-2.75 1.83,-1.83 2.75,-4.09 2.75,-6.78 0,-2.67 -0.92,-4.93 -2.75,-6.76 -1.84,-1.83 -4.09,-2.75 -6.79,-2.75l-38.12 0c-7.96,0 -14.69,-2.8 -20.27,-8.36 -5.55,-5.55 -8.34,-12.31 -8.34,-20.25 0,-7.94 2.79,-14.7 8.34,-20.25 5.58,-5.56 12.31,-8.33 20.27,-8.33l57.2 0 0 19.05 -57.2 0c-2.69,0 -4.95,0.94 -6.78,2.76 -1.83,1.85 -2.75,4.11 -2.75,6.78 0,2.69 0.91,4.95 2.75,6.79 1.83,1.83 4.09,2.75 6.78,2.75l38.12 0c7.94,0 14.69,2.78 20.27,8.34 5.54,5.56 8.34,12.31 8.34,20.25 0,7.96 -2.8,14.7 -8.34,20.27 -5.59,5.57 -12.33,8.34 -20.27,8.34z"/>
  </g>
 </g>
</svg>
